<mxfile host="app.diagrams.net" agent="Mozilla/5.0 (Windows NT 10.0; Win64; x64) AppleWebKit/537.36 (KHTML, like Gecko) Chrome/129.0.0.0 Safari/537.36 Edg/129.0.0.0" version="24.7.17">
  <diagram name="Page-1" id="equDuDwp-aKilr8TaYBa">
    <mxGraphModel dx="704" dy="831" grid="1" gridSize="10" guides="1" tooltips="1" connect="1" arrows="1" fold="1" page="1" pageScale="1" pageWidth="827" pageHeight="1169" math="0" shadow="0">
      <root>
        <mxCell id="0" />
        <mxCell id="1" parent="0" />
        <mxCell id="c38J7D40Df4IfkBJ6cpy-4" style="edgeStyle=none;curved=1;rounded=0;orthogonalLoop=1;jettySize=auto;html=1;exitX=0.5;exitY=1;exitDx=0;exitDy=0;entryX=0.5;entryY=1;entryDx=0;entryDy=0;fontSize=12;startSize=8;endSize=8;" edge="1" parent="1" source="c38J7D40Df4IfkBJ6cpy-1" target="c38J7D40Df4IfkBJ6cpy-2">
          <mxGeometry relative="1" as="geometry" />
        </mxCell>
        <mxCell id="c38J7D40Df4IfkBJ6cpy-1" value="Pocetak" style="ellipse;whiteSpace=wrap;html=1;" vertex="1" parent="1">
          <mxGeometry x="310" y="10" width="100" height="40" as="geometry" />
        </mxCell>
        <mxCell id="c38J7D40Df4IfkBJ6cpy-6" style="edgeStyle=none;curved=1;rounded=0;orthogonalLoop=1;jettySize=auto;html=1;exitX=0.5;exitY=0;exitDx=0;exitDy=0;entryX=0.5;entryY=0;entryDx=0;entryDy=0;fontSize=12;startSize=8;endSize=8;" edge="1" parent="1" source="c38J7D40Df4IfkBJ6cpy-2" target="c38J7D40Df4IfkBJ6cpy-5">
          <mxGeometry relative="1" as="geometry" />
        </mxCell>
        <mxCell id="c38J7D40Df4IfkBJ6cpy-2" value="" style="shape=trapezoid;perimeter=trapezoidPerimeter;whiteSpace=wrap;html=1;fixedSize=1;rotation=-180;" vertex="1" parent="1">
          <mxGeometry x="310" y="80" width="100" height="40" as="geometry" />
        </mxCell>
        <mxCell id="c38J7D40Df4IfkBJ6cpy-3" value="a, b, c" style="text;html=1;align=center;verticalAlign=middle;whiteSpace=wrap;rounded=0;fontSize=16;" vertex="1" parent="1">
          <mxGeometry x="330" y="85" width="60" height="30" as="geometry" />
        </mxCell>
        <mxCell id="c38J7D40Df4IfkBJ6cpy-8" style="edgeStyle=none;curved=1;rounded=0;orthogonalLoop=1;jettySize=auto;html=1;exitX=0.5;exitY=1;exitDx=0;exitDy=0;entryX=0.5;entryY=0;entryDx=0;entryDy=0;fontSize=12;startSize=8;endSize=8;" edge="1" parent="1" source="c38J7D40Df4IfkBJ6cpy-5" target="c38J7D40Df4IfkBJ6cpy-7">
          <mxGeometry relative="1" as="geometry" />
        </mxCell>
        <mxCell id="c38J7D40Df4IfkBJ6cpy-5" value="s = (a + b +c) / 2" style="rounded=0;whiteSpace=wrap;html=1;" vertex="1" parent="1">
          <mxGeometry x="300" y="150" width="120" height="40" as="geometry" />
        </mxCell>
        <mxCell id="c38J7D40Df4IfkBJ6cpy-10" style="edgeStyle=none;curved=1;rounded=0;orthogonalLoop=1;jettySize=auto;html=1;exitX=0.5;exitY=1;exitDx=0;exitDy=0;fontSize=12;startSize=8;endSize=8;" edge="1" parent="1" source="c38J7D40Df4IfkBJ6cpy-7">
          <mxGeometry relative="1" as="geometry">
            <mxPoint x="360" y="290" as="targetPoint" />
          </mxGeometry>
        </mxCell>
        <mxCell id="c38J7D40Df4IfkBJ6cpy-7" value="P = sqrt(s * (s-a)*(s-b)*(s-c))" style="rounded=0;whiteSpace=wrap;html=1;" vertex="1" parent="1">
          <mxGeometry x="280" y="221" width="160" height="40" as="geometry" />
        </mxCell>
        <mxCell id="c38J7D40Df4IfkBJ6cpy-12" style="edgeStyle=none;curved=1;rounded=0;orthogonalLoop=1;jettySize=auto;html=1;exitX=0.5;exitY=1;exitDx=0;exitDy=0;entryX=0.5;entryY=0;entryDx=0;entryDy=0;fontSize=12;startSize=8;endSize=8;" edge="1" parent="1" source="c38J7D40Df4IfkBJ6cpy-9" target="c38J7D40Df4IfkBJ6cpy-11">
          <mxGeometry relative="1" as="geometry" />
        </mxCell>
        <mxCell id="c38J7D40Df4IfkBJ6cpy-9" value="P" style="shape=trapezoid;perimeter=trapezoidPerimeter;whiteSpace=wrap;html=1;fixedSize=1;" vertex="1" parent="1">
          <mxGeometry x="300" y="292" width="120" height="40" as="geometry" />
        </mxCell>
        <mxCell id="c38J7D40Df4IfkBJ6cpy-11" value="KRAJ" style="ellipse;whiteSpace=wrap;html=1;" vertex="1" parent="1">
          <mxGeometry x="305" y="360" width="110" height="40" as="geometry" />
        </mxCell>
      </root>
    </mxGraphModel>
  </diagram>
</mxfile>
